<svg class="svg-icon" style="width: 1em; height: 1em;vertical-align: middle;fill: currentColor;overflow: hidden;" viewBox="0 0 1024 1024" version="1.1" xmlns="http://www.w3.org/2000/svg"><path d="M213.333333 0l597.333333 0q52.992 0 90.496 37.504t37.504 90.496l0 768q0 52.992-37.504 90.496t-90.496 37.504l-597.333333 0q-52.992 0-90.496-37.504t-37.504-90.496l0-768q0-52.992 37.504-90.496t90.496-37.504zM341.333333 725.333333l341.333333 0q17.664 0 30.165333 12.501333t12.501333 30.165333-12.501333 30.165333-30.165333 12.501333l-341.333333 0q-17.664 0-30.165333-12.501333t-12.501333-30.165333 12.501333-30.165333 30.165333-12.501333zM341.333333 554.666667l341.333333 0q17.664 0 30.165333 12.501333t12.501333 30.165333-12.501333 30.165333-30.165333 12.501333l-341.333333 0q-17.664 0-30.165333-12.501333t-12.501333-30.165333 12.501333-30.165333 30.165333-12.501333zM810.666667 85.333333l-597.333333 0q-17.664 0-30.165333 12.501333t-12.501333 30.165333l0 768q0 17.664 12.501333 30.165333t30.165333 12.501333l597.333333 0q17.664 0 30.165333-12.501333t12.501333-30.165333l0-768q0-17.664-12.501333-30.165333t-30.165333-12.501333zM341.333333 384l341.333333 0q17.664 0 30.165333 12.501333t12.501333 30.165333-12.501333 30.165333-30.165333 12.501333l-341.333333 0q-17.664 0-30.165333-12.501333t-12.501333-30.165333 12.501333-30.165333 30.165333-12.501333zM341.333333 213.333333l170.666667 0q17.664 0 30.165333 12.501333t12.501333 30.165333-12.501333 30.165333-30.165333 12.501333l-170.666667 0q-17.664 0-30.165333-12.501333t-12.501333-30.165333 12.501333-30.165333 30.165333-12.501333z"  /></svg>